<svg xmlns="http://www.w3.org/2000/svg" height="40px" viewBox="0 -960 960 960" width="40px" fill="#1f1f1f"><path d="M270.03-549.03q-51.36-51.36-51.36-129.83 0-78.47 51.36-129.81Q321.4-860 399.86-860q78.47 0 130.31 51.33Q582-757.33 582-678.86t-51.83 129.83q-51.84 51.36-130.31 51.36-78.46 0-129.83-51.36ZM52-120.33v-130Q52-297 77.17-331q25.16-34 57.16-49.67 65-30 133.5-46.5T400-443.67h19.5q13.5 0 22.17.67-8.67 16-19 47.83-10.34 31.84-13.34 56.84h-7.4q-55.6 0-110.65 12.14-55.06 12.15-106.53 36.79-13.71 7.09-20.9 18.41-7.18 11.32-7.18 24.99v21h252q6 28 22.5 57.17 16.5 29.16 32.83 47.5H52ZM670.39-92l-11.06-67.67q-12.66-3.66-25.83-11Q620.33-178 611-187l-60.33 16-40-69.33 50-45q-3-7-2.5-20.17.5-13.17 2.5-19.5l-50-46 40-68.33L611-424q9.33-8.33 22.5-16t25.83-10.67L670.39-519H754l11.67 68.33q12 3 25.66 10.67 13.67 7.67 23 16.67l59.34-16 41 69-51 46q3.66 6.42 3.16 19.37-.5 12.96-3.16 19.63l51 45-41 69.33-59.34-16q-9.33 9-23 16.33-13.66 7.34-25.66 11L754-92h-83.61Zm94.72-160.67q20.89-21 20.89-53t-20.92-52.83q-20.91-20.83-52.5-20.83-31.58 0-52.91 20.83-21.34 20.83-21.34 52.83t21.4 53q21.39 21 52.94 21 31.55 0 52.44-21ZM454.67-624.36q22-22.03 22-55t-21.89-54.47q-21.89-21.5-54.67-21.5t-54.78 21.52q-22 21.53-22 54.5 0 32.98 21.89 54.98t54.67 22q32.78 0 54.78-22.03ZM400-679Zm8.67 454Z"/></svg>